<svg width="184" height="173" viewBox="0 0 184 173" fill="none" xmlns="http://www.w3.org/2000/svg">
<rect width="184" height="173" rx="8" fill="#F9F9F9"/>
<rect x="1" y="1" width="182" height="171" rx="7" stroke="#747474" stroke-opacity="0.3" stroke-width="2"/>
<line x1="16" y1="25" x2="168" y2="25" stroke="#111111" stroke-width="4" stroke-linecap="round"/>
<g filter="url(#filter0_d_2954_12696)">
<path d="M20 26H163V138C163 140.209 161.209 142 159 142H24C21.7909 142 20 140.209 20 138V26Z" fill="white" shape-rendering="crispEdges"/>
<path d="M72.3818 128.994V127.93H78.0166V128.994H75.8389V135H74.5693V128.994H72.3818ZM78.4502 128.994V127.93H84.085V128.994H81.9072V135H80.6377V128.994H78.4502ZM91.7197 130.312C91.5732 129.463 90.8896 128.975 90.0303 128.975C88.8682 128.975 88.0576 129.863 88.0576 131.465C88.0576 133.086 88.8779 133.955 90.0303 133.955C90.8701 133.955 91.5537 133.486 91.7197 132.656H92.999C92.8037 134.014 91.6904 135.098 90.0107 135.098C88.1455 135.098 86.7783 133.74 86.7783 131.465C86.7783 129.18 88.165 127.832 90.0107 127.832C91.5732 127.832 92.7842 128.74 92.999 130.312H91.7197ZM94.6533 135H93.2959L95.7861 127.93H97.3486L99.8486 135H98.4912L97.9053 133.252H95.2393L94.6533 135ZM95.5811 132.227H97.5635L96.5967 129.375H96.5381L95.5811 132.227ZM100.438 135V127.93H104.97V128.994H101.708V130.928H104.657V131.992H101.708V135H100.438ZM105.794 135V127.93H110.394V128.994H107.063V130.928H110.149V131.992H107.063V133.926H110.413V135H105.794Z" fill="#444444"/>
</g>
<defs>
<filter id="filter0_d_2954_12696" x="16" y="24" width="151" height="124" filterUnits="userSpaceOnUse" color-interpolation-filters="sRGB">
<feFlood flood-opacity="0" result="BackgroundImageFix"/>
<feColorMatrix in="SourceAlpha" type="matrix" values="0 0 0 0 0 0 0 0 0 0 0 0 0 0 0 0 0 0 127 0" result="hardAlpha"/>
<feOffset dy="2"/>
<feGaussianBlur stdDeviation="2"/>
<feComposite in2="hardAlpha" operator="out"/>
<feColorMatrix type="matrix" values="0 0 0 0 0 0 0 0 0 0 0 0 0 0 0 0 0 0 0.14 0"/>
<feBlend mode="normal" in2="BackgroundImageFix" result="effect1_dropShadow_2954_12696"/>
<feBlend mode="normal" in="SourceGraphic" in2="effect1_dropShadow_2954_12696" result="shape"/>
</filter>
</defs>
</svg>
