<svg width="21" height="20" viewBox="0 0 21 20" fill="none" xmlns="http://www.w3.org/2000/svg">
<g clip-path="url(#clip0_3521_10369)">
<path d="M4.22974 0.504883C4.2316 0.506116 4.23296 0.507696 4.23462 0.509766L4.24341 0.527344L5.02661 2.67871L5.10571 2.89746L5.32544 2.97754L7.47681 3.75977C7.48704 3.7635 7.49237 3.76696 7.49438 3.76855C7.49647 3.77022 7.49803 3.77253 7.49927 3.77441C7.50208 3.7789 7.50605 3.78796 7.5061 3.80078C7.5061 3.81404 7.50212 3.82371 7.49927 3.82812C7.49808 3.82992 7.49633 3.83142 7.49438 3.83301C7.49238 3.8346 7.48696 3.83808 7.47681 3.8418L5.32544 4.625L5.10571 4.7041L5.02661 4.92383L4.24341 7.0752C4.23969 7.08535 4.23621 7.09077 4.23462 7.09277C4.23303 7.09471 4.23154 7.09647 4.22974 7.09766C4.22532 7.10051 4.21565 7.10449 4.20239 7.10449C4.18957 7.10444 4.18052 7.10047 4.17603 7.09766C4.17414 7.09642 4.17183 7.09486 4.17017 7.09277C4.16857 7.09076 4.16511 7.08542 4.16138 7.0752L3.37915 4.92383L3.29907 4.7041L3.08032 4.625L0.927979 3.8418H0.928955C0.918726 3.83806 0.913389 3.8346 0.911377 3.83301C0.909308 3.83135 0.907727 3.82999 0.906494 3.82812C0.903628 3.82378 0.899658 3.8142 0.899658 3.80078C0.89971 3.78778 0.903666 3.77884 0.906494 3.77441C0.907752 3.77251 0.909239 3.77025 0.911377 3.76855C0.913491 3.7669 0.918998 3.7634 0.928955 3.75977L0.927979 3.75879L3.08032 2.97754L3.29907 2.89746L3.37915 2.67871L4.16138 0.527344C4.16501 0.517387 4.16851 0.51188 4.17017 0.509766C4.17186 0.507628 4.17412 0.506141 4.17603 0.504883C4.18045 0.502055 4.18939 0.498099 4.20239 0.498047C4.21581 0.498047 4.22539 0.502017 4.22974 0.504883Z" stroke="#C1C1C1"/>
</g>
<path d="M12.4003 5.51953C12.5643 5.51953 12.6866 5.59073 12.7509 5.70312L12.7743 5.75391L14.4208 10.0625L14.5458 10.3896L14.8759 10.5039L19.4022 12.0703C19.5872 12.1347 19.6502 12.2644 19.6503 12.3848C19.6503 12.4903 19.6019 12.6033 19.4657 12.6729L19.4022 12.6992L14.8759 14.2666L14.5458 14.3809L14.4208 14.707L12.7743 19.0166C12.7201 19.1575 12.5875 19.25 12.4003 19.25C12.2363 19.2499 12.1148 19.1788 12.0507 19.0664L12.0262 19.0166L10.3807 14.707L10.2557 14.3809L9.92566 14.2666L5.39832 12.6992H5.39929C5.21405 12.6349 5.15125 12.5053 5.15125 12.3848C5.15132 12.2643 5.21414 12.1346 5.39929 12.0703L5.39832 12.0693L9.92566 10.5039L10.2557 10.3896L10.3807 10.0625L12.0262 5.75391C12.0803 5.61278 12.213 5.51962 12.4003 5.51953Z" stroke="#C1C1C1" stroke-width="1.5"/>
<defs>
<clipPath id="clip0_3521_10369">
<rect width="7.60847" height="7.60847" fill="white" transform="translate(0.39978)"/>
</clipPath>
</defs>
</svg>
