<svg width="132" height="64" viewBox="0 0 132 64" fill="none" xmlns="http://www.w3.org/2000/svg">
<g filter="url(#filter0_dd_3361_17898)">
<path d="M100 12L105 6L110 12H100Z" fill="#444444"/>
<rect x="10" y="12" width="108" height="34" rx="4" fill="#444444"/>
<path d="M28.3396 23.459V24.4297C28.3396 25.3799 28.3396 26.4531 28.0662 27.834H29.7068V28.8867H18.5643V27.834H26.7674C26.8699 27.3281 26.9383 26.8701 26.9861 26.4395L19.8084 26.7402L19.6443 25.7285L27.0408 25.5234C27.0545 25.1611 27.0545 24.8262 27.0545 24.498H19.9588V23.459H28.3396ZM28.4217 29.9121V32.8789H21.1619V33.9863H28.8592V35.0117H19.8631V31.9082H27.1365V30.9102H19.8357V29.9121H28.4217ZM40.4584 22.9258V30.4043H39.1596V22.9258H40.4584ZM40.4584 31.0332V35.1621H39.1596V32.0996H32.1596V31.0332H40.4584ZM36.5482 23.6367V27.1367H32.2143V28.709C34.3539 28.7021 35.933 28.627 37.7924 28.3535L37.9564 29.4062C35.9604 29.7207 34.2787 29.7754 31.9682 29.7754H30.9428V26.125H35.2631V24.6895H30.9154V23.6367H36.5482ZM49.6158 26.0293C49.6021 28.2715 50.9557 30.5137 52.8561 31.3613L52.0768 32.3867C50.6686 31.7168 49.5543 30.3428 48.9869 28.668C48.4127 30.459 47.2848 31.9424 45.815 32.6602L45.0221 31.5664C46.9498 30.7051 48.3033 28.3672 48.3033 26.0293V23.9375H49.6158V26.0293ZM55.2623 22.9121V35.1895H53.9635V22.9121H55.2623ZM65.1033 24.293V27.4785H66.7439V23.1445H67.9881V34.5605H66.7439V28.5449H65.1033V31.9355H60.3455V24.293H65.1033ZM61.576 25.3184V30.8965H63.8865V25.3184H61.576ZM70.4764 22.9121V35.1621H69.2322V22.9121H70.4764ZM81.5697 26.959V28.0117H73.0795V23.5137H74.392V26.959H81.5697ZM82.8549 29.666V30.7188H80.0658V35.1621H78.7533V30.7188H75.7865V35.1621H74.4877V30.7188H71.685V29.666H82.8549ZM96.1275 22.8984V26.5625H97.9049V27.6562H96.1275V31.9082H94.8287V22.8984H96.1275ZM96.6471 33.8496V34.9023H88.3619V30.9648H89.6607V33.8496H96.6471ZM89.9478 23.7461C91.7935 23.7461 93.2018 25.0039 93.2154 26.7949C93.2018 28.5723 91.7935 29.8438 89.9478 29.8438C88.1021 29.8438 86.6803 28.5723 86.6939 26.7949C86.6803 25.0039 88.1021 23.7461 89.9478 23.7461ZM89.9478 24.8809C88.8268 24.8809 87.9518 25.6602 87.9654 26.7949C87.9518 27.9297 88.8268 28.709 89.9478 28.709C91.0826 28.709 91.9439 27.9297 91.9439 26.7949C91.9439 25.6602 91.0826 24.8809 89.9478 24.8809ZM108.738 22.9121V35.1621H107.494V28.8867H105.922V34.5332H104.705V23.1582H105.922V27.8203H107.494V22.9121H108.738ZM100.125 24.3613V30.8965C101.26 30.8896 102.497 30.8008 103.885 30.5273L104.022 31.6621C102.34 31.9629 100.932 32.0449 99.6193 32.0449H98.8264V24.3613H100.125Z" fill="white"/>
</g>
<defs>
<filter id="filter0_dd_3361_17898" x="0" y="0" width="132" height="64" filterUnits="userSpaceOnUse" color-interpolation-filters="sRGB">
<feFlood flood-opacity="0" result="BackgroundImageFix"/>
<feColorMatrix in="SourceAlpha" type="matrix" values="0 0 0 0 0 0 0 0 0 0 0 0 0 0 0 0 0 0 127 0" result="hardAlpha"/>
<feOffset dx="2" dy="6"/>
<feGaussianBlur stdDeviation="6"/>
<feColorMatrix type="matrix" values="0 0 0 0 0 0 0 0 0 0 0 0 0 0 0 0 0 0 0.12 0"/>
<feBlend mode="normal" in2="BackgroundImageFix" result="effect1_dropShadow_3361_17898"/>
<feColorMatrix in="SourceAlpha" type="matrix" values="0 0 0 0 0 0 0 0 0 0 0 0 0 0 0 0 0 0 127 0" result="hardAlpha"/>
<feOffset/>
<feGaussianBlur stdDeviation="2"/>
<feColorMatrix type="matrix" values="0 0 0 0 0 0 0 0 0 0 0 0 0 0 0 0 0 0 0.12 0"/>
<feBlend mode="normal" in2="effect1_dropShadow_3361_17898" result="effect2_dropShadow_3361_17898"/>
<feBlend mode="normal" in="SourceGraphic" in2="effect2_dropShadow_3361_17898" result="shape"/>
</filter>
</defs>
</svg>
