<svg width="69" height="27" viewBox="0 0 69 27" fill="none" xmlns="http://www.w3.org/2000/svg">
<rect width="69.0002" height="27" rx="13.5" fill="#575757"/>
<rect width="69.0002" height="27" rx="13.5" fill="black" fill-opacity="0.2"/>
<g clip-path="url(#clip0_3510_11990)">
<path fill-rule="evenodd" clip-rule="evenodd" d="M12.5883 7.71252C12.4839 7.42656 12.0796 7.42656 11.9753 7.71252L11.5057 9.00377L10.2145 9.47331C9.92851 9.57765 9.92851 9.98198 10.2145 10.0863L11.5057 10.5559L11.9753 11.8471C12.0796 12.1331 12.4839 12.1331 12.5883 11.8471L13.0578 10.5559L14.3491 10.0863C14.635 9.98198 14.635 9.57765 14.3491 9.47331L13.0578 9.00377L12.5883 7.71252Z" fill="#FFC845"/>
</g>
<path fill-rule="evenodd" clip-rule="evenodd" d="M17.8453 10.7908C17.6258 10.2182 16.7753 10.2182 16.5558 10.7908L15.5681 13.3764L12.852 14.3166C12.2505 14.5256 12.2505 15.3352 12.852 15.5441L15.5681 16.4844L16.5558 19.07C16.7753 19.6426 17.6258 19.6426 17.8453 19.07L18.8329 16.4844L21.549 15.5441C22.1506 15.3352 22.1506 14.5256 21.549 14.3166L18.8329 13.3764L17.8453 10.7908Z" fill="#FFC845"/>
<path d="M29.6531 18H28.282L31.3289 9.51562H32.8172L35.8758 18H34.5047L33.7312 15.7617H30.4266L29.6531 18ZM30.8016 14.6836H33.3562L32.1023 11.0625H32.0437L30.8016 14.6836ZM37.943 9.51562V18H36.6539V9.51562H37.943ZM48.4828 13.9922V14.8828H44.3109V16.8164H43.2094V14.8828H38.8734V13.9922H48.4828ZM47.4164 17.8711V18.7734H40.0687V15.9023H41.1703V17.8711H47.4164ZM41.2406 8.82422V10.1016H46.1039V8.82422H47.2172V13.0664H40.1391V8.82422H41.2406ZM41.2406 12.1758H46.1039V10.9336H41.2406V12.1758ZM52.6594 10.1719C52.6477 11.5664 53.6086 12.8789 55.1906 13.4062L54.5812 14.2969C53.4211 13.8809 52.5656 13.0312 52.1203 11.9648C51.6574 13.1367 50.7668 14.0566 49.5422 14.5195L48.9445 13.6172C50.5852 13.043 51.5344 11.6602 51.5461 10.1133V9.03516H52.6594V10.1719ZM57.7102 15.2695V18.9961H56.5969V16.1484H50.5969V15.2695H57.7102ZM57.7102 8.49609V14.7188H56.5969V11.5312H54.382V10.6172H56.5969V8.49609H57.7102Z" fill="#FFC845"/>
<defs>
<clipPath id="clip0_3510_11990">
<rect width="4.56501" height="4.56501" fill="white" transform="translate(10 7.5)"/>
</clipPath>
</defs>
</svg>
