<svg width="159" height="58" viewBox="0 0 159 58" fill="none" xmlns="http://www.w3.org/2000/svg">
<g filter="url(#filter0_dd_3552_5925)">
<rect x="10" y="6" width="135" height="34" rx="4" fill="#444444"/>
<path d="M28.5561 17.459V18.4297C28.5561 19.3799 28.5561 20.4531 28.2826 21.834H29.9232V22.8867H18.7807V21.834H26.9838C27.0863 21.3281 27.1547 20.8701 27.2025 20.4395L20.0248 20.7402L19.8607 19.7285L27.2572 19.5234C27.2709 19.1611 27.2709 18.8262 27.2709 18.498H20.1752V17.459H28.5561ZM28.6381 23.9121V26.8789H21.3783V27.9863H29.0756V29.0117H20.0795V25.9082H27.3529V24.9102H20.0521V23.9121H28.6381ZM40.6748 16.9258V24.4043H39.376V16.9258H40.6748ZM40.6748 25.0332V29.1621H39.376V26.0996H32.376V25.0332H40.6748ZM36.7646 17.6367V21.1367H32.4307V22.709C34.5703 22.7021 36.1494 22.627 38.0088 22.3535L38.1728 23.4062C36.1768 23.7207 34.4951 23.7754 32.1846 23.7754H31.1592V20.125H35.4795V18.6895H31.1318V17.6367H36.7646ZM49.8322 20.0293C49.8186 22.2715 51.1721 24.5137 53.0725 25.3613L52.2932 26.3867C50.885 25.7168 49.7707 24.3428 49.2033 22.668C48.6291 24.459 47.5012 25.9424 46.0314 26.6602L45.2385 25.5664C47.1662 24.7051 48.5197 22.3672 48.5197 20.0293V17.9375H49.8322V20.0293ZM55.4787 16.9121V29.1895H54.1799V16.9121H55.4787ZM65.7299 17.1719C68.4232 17.1719 70.1049 18.0469 70.1049 19.5234C70.1049 20.9727 68.4232 21.834 65.7299 21.834C63.0502 21.834 61.3549 20.9727 61.3549 19.5234C61.3549 18.0469 63.0502 17.1719 65.7299 17.1719ZM65.7299 18.1973C63.8432 18.1973 62.6811 18.6758 62.6947 19.5234C62.6811 20.3438 63.8432 20.8086 65.7299 20.8223C67.6029 20.8086 68.765 20.3438 68.765 19.5234C68.765 18.6758 67.6029 18.1973 65.7299 18.1973ZM69.9545 24.9238V29.0117H61.4916V24.9238H69.9545ZM62.7768 25.9629V27.959H68.6967V25.9629H62.7768ZM71.3217 22.7773V23.8301H60.1518V22.7773H71.3217ZM76.249 18.7441C76.249 20.4668 77.3564 21.998 79.2158 22.5996L78.5049 23.6113C77.1582 23.126 76.167 22.1826 75.6338 20.959C75.1006 22.3604 74.0342 23.4473 72.5576 23.9805L71.8604 22.9414C73.8154 22.2715 74.9502 20.6445 74.9639 18.7988V17.5957H76.249V18.7441ZM82.1143 16.9121V24.1445H80.8154V20.4668H78.2314V19.4004H80.8154V16.9121H82.1143ZM78.0127 24.4863C80.583 24.4863 82.1553 25.334 82.1553 26.8242C82.1553 28.3008 80.583 29.1484 78.0127 29.1348C75.4424 29.1484 73.8564 28.3008 73.8701 26.8242C73.8564 25.334 75.4424 24.4863 78.0127 24.4863ZM78.0127 25.498C76.2217 25.498 75.1553 25.9766 75.1553 26.8242C75.1553 27.6445 76.2217 28.1094 78.0127 28.1094C79.8037 28.1094 80.8701 27.6445 80.8701 26.8242C80.8701 25.9766 79.8037 25.498 78.0127 25.498ZM96.3439 16.8984V20.5625H98.1213V21.6562H96.3439V25.9082H95.0451V16.8984H96.3439ZM96.8635 27.8496V28.9023H88.5783V24.9648H89.8771V27.8496H96.8635ZM90.1643 17.7461C92.01 17.7461 93.4182 19.0039 93.4318 20.7949C93.4182 22.5723 92.01 23.8438 90.1643 23.8438C88.3186 23.8438 86.8967 22.5723 86.9103 20.7949C86.8967 19.0039 88.3186 17.7461 90.1643 17.7461ZM90.1643 18.8809C89.0432 18.8809 88.1682 19.6602 88.1818 20.7949C88.1682 21.9297 89.0432 22.709 90.1643 22.709C91.299 22.709 92.1603 21.9297 92.1603 20.7949C92.1603 19.6602 91.299 18.8809 90.1643 18.8809ZM108.955 16.9121V29.1621H107.711V22.8867H106.138V28.5332H104.922V17.1582H106.138V21.8203H107.711V16.9121H108.955ZM100.342 18.3613V24.8965C101.476 24.8896 102.714 24.8008 104.101 24.5273L104.238 25.6621C102.556 25.9629 101.148 26.0449 99.8357 26.0449H99.0428V18.3613H100.342ZM123.868 16.9121V29.1621H122.624V22.873H121.161V28.5605H119.931V17.1445H121.161V21.7793H122.624V16.9121H123.868ZM117.005 20.1523C117.005 22.3535 117.839 24.3496 119.616 25.2656L118.851 26.2637C117.647 25.6143 116.841 24.4727 116.403 23.0508C115.986 24.6641 115.173 25.9492 113.929 26.6875L113.122 25.7031C114.913 24.6914 115.747 22.5859 115.747 20.1523V19.3594H113.45V18.3066H119.138V19.3594H117.005V20.1523ZM128.782 19.2637C128.782 20.6035 129.643 21.957 131.229 22.5586L130.546 23.5566C129.404 23.1191 128.604 22.2852 128.167 21.2734C127.715 22.415 126.875 23.4062 125.692 23.9121L124.981 22.9004C126.635 22.1758 127.524 20.6309 127.524 19.2637V17.6777H128.782V19.2637ZM135.481 16.9258V24.459H134.251V21.1777H132.815V24.0762H131.612V17.1445H132.815V20.1113H134.251V16.9258H135.481ZM131.379 24.6914C133.936 24.6914 135.536 25.5254 135.549 26.9199C135.536 28.3145 133.936 29.1484 131.379 29.1348C128.823 29.1484 127.223 28.3145 127.237 26.9199C127.223 25.5254 128.823 24.6914 131.379 24.6914ZM131.379 25.6895C129.602 25.6895 128.508 26.1406 128.522 26.9199C128.508 27.6992 129.602 28.1504 131.379 28.1367C133.157 28.1504 134.237 27.6992 134.251 26.9199C134.237 26.1406 133.157 25.6895 131.379 25.6895Z" fill="white"/>
</g>
<path d="M145 28L151 23L145 18L145 28Z" fill="#444444"/>
<defs>
<filter id="filter0_dd_3552_5925" x="0" y="0" width="159" height="58" filterUnits="userSpaceOnUse" color-interpolation-filters="sRGB">
<feFlood flood-opacity="0" result="BackgroundImageFix"/>
<feColorMatrix in="SourceAlpha" type="matrix" values="0 0 0 0 0 0 0 0 0 0 0 0 0 0 0 0 0 0 127 0" result="hardAlpha"/>
<feOffset dx="2" dy="6"/>
<feGaussianBlur stdDeviation="6"/>
<feColorMatrix type="matrix" values="0 0 0 0 0 0 0 0 0 0 0 0 0 0 0 0 0 0 0.12 0"/>
<feBlend mode="normal" in2="BackgroundImageFix" result="effect1_dropShadow_3552_5925"/>
<feColorMatrix in="SourceAlpha" type="matrix" values="0 0 0 0 0 0 0 0 0 0 0 0 0 0 0 0 0 0 127 0" result="hardAlpha"/>
<feOffset/>
<feGaussianBlur stdDeviation="2"/>
<feColorMatrix type="matrix" values="0 0 0 0 0 0 0 0 0 0 0 0 0 0 0 0 0 0 0.12 0"/>
<feBlend mode="normal" in2="effect1_dropShadow_3552_5925" result="effect2_dropShadow_3552_5925"/>
<feBlend mode="normal" in="SourceGraphic" in2="effect2_dropShadow_3552_5925" result="shape"/>
</filter>
</defs>
</svg>
