<svg width="159" height="64" viewBox="0 0 159 64" fill="none" xmlns="http://www.w3.org/2000/svg">
<g filter="url(#filter0_dd_3361_11101)">
<path d="M127 12L132 6L137 12H127Z" fill="#444444"/>
<rect x="10" y="12" width="135" height="34" rx="4" fill="#444444"/>
<path d="M28.5561 23.459V24.4297C28.5561 25.3799 28.5561 26.4531 28.2826 27.834H29.9232V28.8867H18.7807V27.834H26.9838C27.0863 27.3281 27.1547 26.8701 27.2025 26.4395L20.0248 26.7402L19.8607 25.7285L27.2572 25.5234C27.2709 25.1611 27.2709 24.8262 27.2709 24.498H20.1752V23.459H28.5561ZM28.6381 29.9121V32.8789H21.3783V33.9863H29.0756V35.0117H20.0795V31.9082H27.3529V30.9102H20.0521V29.9121H28.6381ZM40.6748 22.9258V30.4043H39.376V22.9258H40.6748ZM40.6748 31.0332V35.1621H39.376V32.0996H32.376V31.0332H40.6748ZM36.7646 23.6367V27.1367H32.4307V28.709C34.5703 28.7021 36.1494 28.627 38.0088 28.3535L38.1728 29.4062C36.1768 29.7207 34.4951 29.7754 32.1846 29.7754H31.1592V26.125H35.4795V24.6895H31.1318V23.6367H36.7646ZM49.8322 26.0293C49.8186 28.2715 51.1721 30.5137 53.0725 31.3613L52.2932 32.3867C50.885 31.7168 49.7707 30.3428 49.2033 28.668C48.6291 30.459 47.5012 31.9424 46.0314 32.6602L45.2385 31.5664C47.1662 30.7051 48.5197 28.3672 48.5197 26.0293V23.9375H49.8322V26.0293ZM55.4787 22.9121V35.1895H54.1799V22.9121H55.4787ZM65.7299 23.1719C68.4232 23.1719 70.1049 24.0469 70.1049 25.5234C70.1049 26.9727 68.4232 27.834 65.7299 27.834C63.0502 27.834 61.3549 26.9727 61.3549 25.5234C61.3549 24.0469 63.0502 23.1719 65.7299 23.1719ZM65.7299 24.1973C63.8432 24.1973 62.6811 24.6758 62.6947 25.5234C62.6811 26.3438 63.8432 26.8086 65.7299 26.8223C67.6029 26.8086 68.765 26.3438 68.765 25.5234C68.765 24.6758 67.6029 24.1973 65.7299 24.1973ZM69.9545 30.9238V35.0117H61.4916V30.9238H69.9545ZM62.7768 31.9629V33.959H68.6967V31.9629H62.7768ZM71.3217 28.7773V29.8301H60.1518V28.7773H71.3217ZM76.249 24.7441C76.249 26.4668 77.3564 27.998 79.2158 28.5996L78.5049 29.6113C77.1582 29.126 76.167 28.1826 75.6338 26.959C75.1006 28.3604 74.0342 29.4473 72.5576 29.9805L71.8604 28.9414C73.8154 28.2715 74.9502 26.6445 74.9639 24.7988V23.5957H76.249V24.7441ZM82.1143 22.9121V30.1445H80.8154V26.4668H78.2314V25.4004H80.8154V22.9121H82.1143ZM78.0127 30.4863C80.583 30.4863 82.1553 31.334 82.1553 32.8242C82.1553 34.3008 80.583 35.1484 78.0127 35.1348C75.4424 35.1484 73.8564 34.3008 73.8701 32.8242C73.8564 31.334 75.4424 30.4863 78.0127 30.4863ZM78.0127 31.498C76.2217 31.498 75.1553 31.9766 75.1553 32.8242C75.1553 33.6445 76.2217 34.1094 78.0127 34.1094C79.8037 34.1094 80.8701 33.6445 80.8701 32.8242C80.8701 31.9766 79.8037 31.498 78.0127 31.498ZM96.3439 22.8984V26.5625H98.1213V27.6562H96.3439V31.9082H95.0451V22.8984H96.3439ZM96.8635 33.8496V34.9023H88.5783V30.9648H89.8771V33.8496H96.8635ZM90.1643 23.7461C92.01 23.7461 93.4182 25.0039 93.4318 26.7949C93.4182 28.5723 92.01 29.8438 90.1643 29.8438C88.3186 29.8438 86.8967 28.5723 86.9103 26.7949C86.8967 25.0039 88.3186 23.7461 90.1643 23.7461ZM90.1643 24.8809C89.0432 24.8809 88.1682 25.6602 88.1818 26.7949C88.1682 27.9297 89.0432 28.709 90.1643 28.709C91.299 28.709 92.1603 27.9297 92.1603 26.7949C92.1603 25.6602 91.299 24.8809 90.1643 24.8809ZM108.955 22.9121V35.1621H107.711V28.8867H106.138V34.5332H104.922V23.1582H106.138V27.8203H107.711V22.9121H108.955ZM100.342 24.3613V30.8965C101.476 30.8896 102.714 30.8008 104.101 30.5273L104.238 31.6621C102.556 31.9629 101.148 32.0449 99.8357 32.0449H99.0428V24.3613H100.342ZM123.868 22.9121V35.1621H122.624V28.873H121.161V34.5605H119.931V23.1445H121.161V27.7793H122.624V22.9121H123.868ZM117.005 26.1523C117.005 28.3535 117.839 30.3496 119.616 31.2656L118.851 32.2637C117.647 31.6143 116.841 30.4727 116.403 29.0508C115.986 30.6641 115.173 31.9492 113.929 32.6875L113.122 31.7031C114.913 30.6914 115.747 28.5859 115.747 26.1523V25.3594H113.45V24.3066H119.138V25.3594H117.005V26.1523ZM128.782 25.2637C128.782 26.6035 129.643 27.957 131.229 28.5586L130.546 29.5566C129.404 29.1191 128.604 28.2852 128.167 27.2734C127.715 28.415 126.875 29.4062 125.692 29.9121L124.981 28.9004C126.635 28.1758 127.524 26.6309 127.524 25.2637V23.6777H128.782V25.2637ZM135.481 22.9258V30.459H134.251V27.1777H132.815V30.0762H131.612V23.1445H132.815V26.1113H134.251V22.9258H135.481ZM131.379 30.6914C133.936 30.6914 135.536 31.5254 135.549 32.9199C135.536 34.3145 133.936 35.1484 131.379 35.1348C128.823 35.1484 127.223 34.3145 127.237 32.9199C127.223 31.5254 128.823 30.6914 131.379 30.6914ZM131.379 31.6895C129.602 31.6895 128.508 32.1406 128.522 32.9199C128.508 33.6992 129.602 34.1504 131.379 34.1367C133.157 34.1504 134.237 33.6992 134.251 32.9199C134.237 32.1406 133.157 31.6895 131.379 31.6895Z" fill="white"/>
</g>
<defs>
<filter id="filter0_dd_3361_11101" x="0" y="0" width="159" height="64" filterUnits="userSpaceOnUse" color-interpolation-filters="sRGB">
<feFlood flood-opacity="0" result="BackgroundImageFix"/>
<feColorMatrix in="SourceAlpha" type="matrix" values="0 0 0 0 0 0 0 0 0 0 0 0 0 0 0 0 0 0 127 0" result="hardAlpha"/>
<feOffset dx="2" dy="6"/>
<feGaussianBlur stdDeviation="6"/>
<feColorMatrix type="matrix" values="0 0 0 0 0 0 0 0 0 0 0 0 0 0 0 0 0 0 0.12 0"/>
<feBlend mode="normal" in2="BackgroundImageFix" result="effect1_dropShadow_3361_11101"/>
<feColorMatrix in="SourceAlpha" type="matrix" values="0 0 0 0 0 0 0 0 0 0 0 0 0 0 0 0 0 0 127 0" result="hardAlpha"/>
<feOffset/>
<feGaussianBlur stdDeviation="2"/>
<feColorMatrix type="matrix" values="0 0 0 0 0 0 0 0 0 0 0 0 0 0 0 0 0 0 0.12 0"/>
<feBlend mode="normal" in2="effect1_dropShadow_3361_11101" result="effect2_dropShadow_3361_11101"/>
<feBlend mode="normal" in="SourceGraphic" in2="effect2_dropShadow_3361_11101" result="shape"/>
</filter>
</defs>
</svg>
