<svg width="157" height="19" viewBox="0 0 157 19" fill="none" xmlns="http://www.w3.org/2000/svg">
<g clip-path="url(#clip0_3005_17909)">
<path d="M7.50534 16.751V4.68568C7.50534 3.67828 6.77975 3.46743 5.87276 3.67828L2.47155 4.42797C1.15641 4.80282 0 3.84228 0 2.31947C0 1.0075 1.04304 0.257812 2.40352 0.257812H16.9834C18.3439 0.257812 19.3416 1.0075 19.3416 2.34289C19.3416 3.8657 18.2305 4.82625 16.87 4.4514L13.3781 3.70171C12.4484 3.51429 11.7455 3.67828 11.7455 4.70911V16.7745C11.7455 18.1801 10.9519 19.0235 9.6141 19.0235C8.27629 19.0235 7.48267 18.1801 7.48267 16.7745L7.50534 16.751Z" fill="white"/>
<path d="M17.3235 11.924C17.3235 7.26184 20.1125 4.40364 24.5794 4.47392C28.6382 4.56763 31.1097 7.26184 31.1551 10.4012C31.1778 11.9006 30.0894 12.5097 28.9556 12.5097H22.3119C21.6544 12.4863 21.3369 12.6971 21.3596 13.3765C21.4049 14.7588 22.7428 15.8599 24.2393 15.8599C25.4637 15.8599 26.2347 15.2742 26.9376 14.6885C27.3911 14.2902 27.8899 13.9388 28.6835 13.9388C29.8173 13.9388 30.4522 14.8993 30.3388 15.8833C30.0213 18.1089 27.0283 19.0226 24.6021 19.0226C19.9764 19.0226 17.3235 16.0941 17.3235 11.9474V11.924ZM27.0056 9.13607C26.6201 7.96468 25.6451 7.28527 24.3073 7.28527C23.1736 7.28527 22.2212 7.9881 21.7224 9.08921C21.4503 9.74519 21.7451 10.2372 22.516 10.2606H26.0759C26.7335 10.2372 27.2097 9.83891 27.0056 9.13607Z" fill="white"/>
<path d="M32.7424 14.7594C32.7424 12.2292 34.2843 10.5659 38.0483 10.2847C40.2704 10.1207 42.039 9.76931 42.039 8.73848C42.039 7.84822 41.0867 7.47338 40.1117 7.47338C38.9779 7.47338 37.5041 7.91851 36.6878 8.78534C36.0982 9.39446 35.5767 9.60531 34.8965 9.60531C34.2162 9.60531 33.4906 9.01962 33.4906 8.03565C33.4906 5.76314 36.8692 4.47461 39.8622 4.47461C42.8553 4.47461 46.0071 5.71629 46.0071 9.65217V16.6805C46.0071 18.1799 45.2362 19.0233 43.9437 19.0233C42.6512 19.0233 42.0163 18.0862 42.1977 16.9617L42.3111 16.5165C42.3338 16.3291 42.3111 16.1885 42.1751 16.1885C42.0163 16.1885 41.9937 16.3057 41.8803 16.5165C40.9506 18.2268 39.114 19.0233 37.4814 19.0233C35.0325 19.0233 32.7877 17.6645 32.7877 14.7829L32.7424 14.7594ZM42.039 13.1429V12.8618C42.0617 12.1355 41.7442 12.1355 41.0413 12.3464C40.3384 12.5807 39.5221 12.6275 38.9779 12.7212C37.3907 12.8618 36.6424 13.6115 36.6424 14.5486C36.6424 15.8137 38.0483 16.1885 39.4541 15.9308C40.8373 15.6966 42.0617 14.5017 42.0617 13.1429H42.039Z" fill="white"/>
<path d="M48.1612 11.5967C48.2519 7.26252 51.0409 4.45117 55.3717 4.45117C58.1154 4.45117 61.2672 5.99741 61.5393 8.26991C61.6526 9.37102 60.859 10.3784 59.816 10.3784C58.7729 10.3784 58.3421 9.72244 57.6846 8.97275C56.959 8.12935 56.3467 7.68422 55.4851 7.66079C53.6938 7.63736 52.2653 9.06646 52.2426 11.6435C52.1973 14.2909 53.6485 15.72 55.3264 15.72C57.0043 15.72 57.7979 14.4314 58.5915 13.3772C58.8863 13.0023 59.2718 12.7915 59.7706 12.7915C60.9951 12.7915 61.63 13.7989 61.5393 14.8766C61.2672 17.2896 58.2741 18.9765 55.2584 18.9765C50.8368 18.9765 48.0705 16.1182 48.1612 11.5967Z" fill="white"/>
<path d="M63.8975 16.5869V2.22565C63.8975 0.702836 64.6911 0 65.8928 0C67.0946 0 67.8429 0.843403 67.8202 2.08508L67.6615 7.16893C67.6615 7.40321 67.7068 7.47349 67.8429 7.47349C67.9789 7.47349 68.0243 7.23921 68.2057 7.00493C68.9993 5.2947 70.7452 4.47472 72.1737 4.47472C75.0761 4.47472 77.2529 6.46609 77.2529 9.8397V16.5869C77.2529 18.1332 76.4819 19 75.2122 19C73.9424 19 73.1714 18.1332 73.1714 16.5869V10.4723C73.1714 8.52774 72.0377 7.70777 70.7679 7.70777C68.9766 7.70777 68.0016 9.1603 68.0016 11.2688V16.5869C68.0016 18.1332 67.2306 19 65.9382 19C64.6457 19 63.8975 18.1332 63.8975 16.5869Z" fill="white"/>
<path d="M85.4611 16.751V4.68567C85.4611 3.67827 84.7356 3.46742 83.8286 3.67827L80.4274 4.42796C79.1122 4.80281 77.9558 3.84227 77.9558 2.31945C77.9558 1.00749 78.9988 0.234375 80.3593 0.234375H94.9392C96.2997 0.234375 97.2974 0.984067 97.2974 2.31945C97.2974 3.84227 96.1863 4.80281 94.8258 4.42796L91.3339 3.67827C90.4042 3.49085 89.7013 3.65484 89.7013 4.68567V16.751C89.7013 18.1567 88.9077 19.0001 87.5699 19.0001C86.2321 19.0001 85.4385 18.1567 85.4385 16.751H85.4611Z" fill="white"/>
<path d="M95.2567 11.8778C95.2567 7.47337 98.0683 4.45117 102.739 4.45117C107.41 4.45117 110.086 7.40308 110.086 11.7841C110.086 16.1651 107.388 18.9765 102.717 18.9765C98.0457 18.9765 95.2567 16.1417 95.2567 11.8778ZM102.717 15.9543C104.871 15.9543 105.868 14.1503 105.868 11.7372C105.868 9.32417 104.825 7.63736 102.739 7.63736C100.653 7.63736 99.5649 9.46474 99.5649 11.8544C99.5649 14.244 100.563 15.9543 102.717 15.9543Z" fill="white"/>
<path d="M112.24 13.6115V6.88767C112.24 5.36486 113.011 4.4746 114.281 4.4746C115.551 4.4746 116.322 5.36486 116.322 6.88767V13.0023C116.322 14.8766 117.455 15.72 118.748 15.72C120.539 15.72 121.514 14.2206 121.514 12.1824V6.86424C121.514 5.34143 122.285 4.45117 123.555 4.45117C124.825 4.45117 125.618 5.34143 125.618 6.86424V16.9148C125.618 18.297 124.757 18.9765 123.532 18.9765C122.308 18.9765 121.763 17.8753 122.013 17.0085L122.24 16.1417C122.33 15.8605 122.217 15.8137 122.104 15.8137C121.945 15.8137 121.922 16.0011 121.809 16.2354C121.015 18.1096 118.906 18.9999 117.433 18.9999C114.44 18.9999 112.263 16.9851 112.263 13.6115H112.24Z" fill="white"/>
<path d="M127.908 11.5967C127.999 7.26252 130.788 4.45117 135.119 4.45117C137.863 4.45117 141.014 5.99741 141.286 8.26991C141.4 9.37102 140.606 10.3784 139.563 10.3784C138.52 10.3784 138.089 9.72244 137.432 8.97275C136.706 8.12935 136.094 7.68422 135.232 7.66079C133.441 7.63736 132.012 9.06646 131.99 11.6435C131.944 14.2909 133.396 15.72 135.051 15.72C136.706 15.72 137.522 14.4314 138.316 13.3772C138.611 13.0023 138.996 12.7915 139.495 12.7915C140.72 12.7915 141.354 13.7989 141.264 14.8766C140.992 17.2896 137.999 18.9765 134.983 18.9765C130.561 18.9765 127.795 16.1182 127.886 11.5967H127.908Z" fill="white"/>
<path d="M143.645 16.5869V2.22565C143.645 0.702836 144.438 0 145.64 0C146.842 0 147.59 0.843403 147.567 2.08508L147.409 7.16893C147.409 7.40321 147.454 7.47349 147.59 7.47349C147.726 7.47349 147.771 7.23921 147.953 7.00493C148.746 5.2947 150.492 4.47472 151.921 4.47472C154.823 4.47472 157 6.46609 157 9.8397V16.5869C157 18.1332 156.229 19 154.959 19C153.69 19 152.919 18.1332 152.919 16.5869V10.4723C152.919 8.52774 151.785 7.70777 150.515 7.70777C148.724 7.70777 147.749 9.1603 147.749 11.2688V16.5869C147.749 18.1332 146.978 19 145.685 19C144.393 19 143.645 18.1332 143.645 16.5869Z" fill="white"/>
</g>
<defs>
<clipPath id="clip0_3005_17909">
<rect width="157" height="19" fill="white"/>
</clipPath>
</defs>
</svg>
