<svg width="20" height="20" viewBox="0 0 20 20" fill="none" xmlns="http://www.w3.org/2000/svg">
<path d="M3.76669 4.94506L1.16086 2.34006L2.34003 1.16089L18.8392 17.6609L17.66 18.8392L14.9017 16.0809C13.436 17.0105 11.7356 17.5028 10 17.5001C5.50669 17.5001 1.76836 14.2667 0.984192 10.0001C1.34255 8.05899 2.31888 6.2858 3.76752 4.94506H3.76669ZM12.2975 13.4767L11.0775 12.2567C10.6109 12.48 10.0865 12.553 9.57663 12.4657C9.06677 12.3784 8.59653 12.1351 8.23075 11.7693C7.86497 11.4036 7.62167 10.9333 7.53437 10.4234C7.44708 9.91358 7.52009 9.38918 7.74336 8.92256L6.52336 7.70256C5.99312 8.5038 5.75608 9.46367 5.85238 10.4196C5.94868 11.3756 6.3724 12.2689 7.05179 12.9483C7.73118 13.6277 8.62449 14.0514 9.58045 14.1477C10.5364 14.244 11.4963 14.007 12.2975 13.4767V13.4767ZM6.64502 3.13339C7.68419 2.72506 8.81669 2.50006 10 2.50006C14.4934 2.50006 18.2317 5.73339 19.0159 10.0001C18.7605 11.3881 18.1866 12.698 17.3392 13.8267L14.1225 10.6101C14.2181 9.9664 14.1615 9.30931 13.9575 8.69143C13.7534 8.07356 13.4074 7.51207 12.9473 7.05194C12.4872 6.59182 11.9257 6.24586 11.3078 6.04178C10.6899 5.8377 10.0328 5.78117 9.38919 5.87672L6.64502 3.13422V3.13339Z" fill="#C1C1C1"/>
</svg>
