<svg width="54" height="20" viewBox="0 0 54 20" fill="none" xmlns="http://www.w3.org/2000/svg">
<g clip-path="url(#clip0_2634_5096)">
<path d="M43.4711 0C49.009 0 53.5 4.4781 53.5 10C53.5 15.5219 49.009 20 43.4711 20H10.5288C4.99101 20 0.5 15.5219 0.5 10C0.5 4.4781 4.99101 0 10.5288 0H43.4711Z" fill="#00DE5A"/>
<path d="M10.5454 17.249C6.5235 17.249 3.26315 14.0033 3.26315 9.99952C3.26315 5.99571 6.5235 2.75 10.5454 2.75C14.5673 2.75 17.8276 5.99571 17.8276 9.99952C17.8295 14.0033 14.5692 17.249 10.5454 17.249ZM11.9517 6.37286V10.3595L9.13716 6.37286H6.90425V13.6224H9.14099V9.63573L11.9555 13.6224H14.1884V6.37286H11.9517Z" fill="black"/>
<path d="M46.5947 5.39399L44.4364 10.3197L42.0524 5.39399H39.875L43.4836 12.3845L42.0333 15.6226H44.0901L48.6496 5.39399H46.5947ZM36.8385 13.2321H38.7882V5.39208H36.8385V6.03589C36.1688 5.49875 35.4111 5.21875 34.4927 5.21875C32.2751 5.21875 30.5378 7.03208 30.5378 9.31018C30.5378 11.5883 32.2751 13.4016 34.4927 13.4016C35.4111 13.4016 36.1688 13.1216 36.8385 12.5845V13.2321ZM34.7759 11.8149C33.471 11.8149 32.4894 10.7407 32.4894 9.31399C32.4894 7.88732 33.4729 6.81304 34.7759 6.81304C36.0789 6.81304 37.0623 7.88732 37.0623 9.31399C37.0643 10.7387 36.0808 11.8149 34.7759 11.8149ZM23.2938 12.6264C23.9501 13.1388 24.6848 13.4054 25.5707 13.4054C27.7883 13.4054 29.5256 11.5921 29.5256 9.31399C29.5256 7.03589 27.7883 5.22256 25.5707 5.22256C24.6523 5.22256 23.8946 5.50256 23.2249 6.0397V5.39589H21.2752V15.6245H23.2919V12.6264H23.2938ZM23.0011 9.31399C23.0011 7.88732 23.9846 6.81304 25.2875 6.81304C26.5905 6.81304 27.574 7.88732 27.574 9.31399C27.574 10.7407 26.5905 11.8149 25.2875 11.8149C23.9846 11.8149 23.0011 10.7387 23.0011 9.31399Z" fill="black"/>
</g>
<defs>
<clipPath id="clip0_2634_5096">
<rect width="53" height="20" fill="white" transform="translate(0.5)"/>
</clipPath>
</defs>
</svg>
