<svg width="127" height="106" viewBox="0 0 127 106" fill="none" xmlns="http://www.w3.org/2000/svg">
<rect x="1" y="1" width="125" height="55" rx="7" fill="#111111"/>
<rect x="1" y="1" width="125" height="55" rx="7" stroke="#747474" stroke-width="2"/>
<line x1="16" y1="26.5" x2="111" y2="26.5" stroke="#747474" stroke-width="4" stroke-linecap="round"/>
<g filter="url(#filter0_d_2634_4201)">
<path d="M16 27H111V96C111 98.2091 109.209 100 107 100H20C17.7909 100 16 98.2091 16 96V27Z" fill="#F6F5F4" shape-rendering="crispEdges"/>
<path d="M37.8652 88.3125C37.7188 87.4629 37.0352 86.9746 36.1758 86.9746C35.0137 86.9746 34.2031 87.8633 34.2031 89.4648C34.2031 91.0859 35.0234 91.9551 36.1758 91.9551C37.0156 91.9551 37.6992 91.4863 37.8652 90.6562H39.1445C38.9492 92.0137 37.8359 93.0977 36.1562 93.0977C34.291 93.0977 32.9238 91.7402 32.9238 89.4648C32.9238 87.1797 34.3105 85.832 36.1562 85.832C37.7188 85.832 38.9297 86.7402 39.1445 88.3125H37.8652ZM39.9883 93V85.9297H42.6445C44.2656 85.9297 45.1348 86.8379 45.1348 88.1855C45.1348 89.1475 44.6953 89.8604 43.8652 90.1973L45.3887 93H43.9727L42.5859 90.4121H41.2578V93H39.9883ZM41.2578 89.3477H42.4492C43.4062 89.3477 43.8359 88.9375 43.8359 88.1855C43.8359 87.4336 43.4062 86.9941 42.4492 86.9941H41.2578V89.3477ZM45.9785 93V85.9297H50.5781V86.9941H47.248V88.9277H50.334V89.9922H47.248V91.9258H50.5977V93H45.9785ZM53.9512 93H51.5488V85.9297H53.9902C56.0996 85.9297 57.3789 87.2578 57.3789 89.4551C57.3789 91.6621 56.0996 93 53.9512 93ZM52.8184 91.8965H53.8828C55.3574 91.8965 56.1094 91.0859 56.1094 89.4551C56.1094 87.834 55.3574 87.0332 53.9219 87.0332H52.8184V91.8965ZM59.5215 85.9297V93H58.252V85.9297H59.5215ZM60.2773 86.9941V85.9297H65.9121V86.9941H63.7344V93H62.4648V86.9941H60.2773ZM73.5469 88.3125C73.4004 87.4629 72.7168 86.9746 71.8574 86.9746C70.6953 86.9746 69.8848 87.8633 69.8848 89.4648C69.8848 91.0859 70.7051 91.9551 71.8574 91.9551C72.6973 91.9551 73.3809 91.4863 73.5469 90.6562H74.8262C74.6309 92.0137 73.5176 93.0977 71.8379 93.0977C69.9727 93.0977 68.6055 91.7402 68.6055 89.4648C68.6055 87.1797 69.9922 85.832 71.8379 85.832C73.4004 85.832 74.6113 86.7402 74.8262 88.3125H73.5469ZM76.4805 93H75.123L77.6133 85.9297H79.1758L81.6758 93H80.3184L79.7324 91.252H77.0664L76.4805 93ZM77.4082 90.2266H79.3906L78.4238 87.375H78.3652L77.4082 90.2266ZM82.2656 93V85.9297H84.9219C86.543 85.9297 87.4121 86.8379 87.4121 88.1855C87.4121 89.1475 86.9727 89.8604 86.1426 90.1973L87.666 93H86.25L84.8633 90.4121H83.5352V93H82.2656ZM83.5352 89.3477H84.7266C85.6836 89.3477 86.1133 88.9375 86.1133 88.1855C86.1133 87.4336 85.6836 86.9941 84.7266 86.9941H83.5352V89.3477ZM90.6582 93H88.2559V85.9297H90.6973C92.8066 85.9297 94.0859 87.2578 94.0859 89.4551C94.0859 91.6621 92.8066 93 90.6582 93ZM89.5254 91.8965H90.5898C92.0645 91.8965 92.8164 91.0859 92.8164 89.4551C92.8164 87.834 92.0645 87.0332 90.6289 87.0332H89.5254V91.8965Z" fill="#444444"/>
</g>
<defs>
<filter id="filter0_d_2634_4201" x="12" y="25" width="103" height="81" filterUnits="userSpaceOnUse" color-interpolation-filters="sRGB">
<feFlood flood-opacity="0" result="BackgroundImageFix"/>
<feColorMatrix in="SourceAlpha" type="matrix" values="0 0 0 0 0 0 0 0 0 0 0 0 0 0 0 0 0 0 127 0" result="hardAlpha"/>
<feOffset dy="2"/>
<feGaussianBlur stdDeviation="2"/>
<feComposite in2="hardAlpha" operator="out"/>
<feColorMatrix type="matrix" values="0 0 0 0 0 0 0 0 0 0 0 0 0 0 0 0 0 0 0.14 0"/>
<feBlend mode="normal" in2="BackgroundImageFix" result="effect1_dropShadow_2634_4201"/>
<feBlend mode="normal" in="SourceGraphic" in2="effect1_dropShadow_2634_4201" result="shape"/>
</filter>
</defs>
</svg>
